<svg width="102" height="16" viewBox="0 0 102 16" fill="none" xmlns="http://www.w3.org/2000/svg">
<path d="M7.26648 0.641311C7.34952 0.475167 7.47719 0.335433 7.63518 0.237771C7.79317 0.140109 7.97524 0.0883789 8.16098 0.0883789C8.34672 0.0883789 8.52879 0.140109 8.68678 0.237771C8.84477 0.335433 8.97244 0.475167 9.05548 0.641311L10.7695 4.07431C10.8436 4.22259 10.9534 4.35012 11.089 4.44543C11.2247 4.54074 11.3819 4.60083 11.5465 4.62031L15.4385 5.08031C15.6302 5.103 15.8113 5.18072 15.9598 5.30407C16.1084 5.42742 16.218 5.59114 16.2756 5.77545C16.3331 5.95976 16.336 6.15678 16.284 6.34273C16.232 6.52867 16.1273 6.69559 15.9825 6.82331L13.2045 9.27431C13.0728 9.39061 12.974 9.53956 12.9182 9.70617C12.8624 9.87277 12.8514 10.0511 12.8865 10.2233L13.6145 13.8003C13.652 13.9852 13.6365 14.177 13.5697 14.3534C13.5029 14.5299 13.3876 14.6839 13.237 14.7975C13.0864 14.9112 12.9067 14.98 12.7187 14.9959C12.5307 15.0117 12.342 14.9741 12.1745 14.8873L8.62148 13.0503C8.47933 12.9767 8.32158 12.9382 8.16148 12.9382C8.00139 12.9382 7.84363 12.9767 7.70148 13.0503L4.14648 14.8883C3.97895 14.9751 3.79028 15.0127 3.60227 14.9969C3.41426 14.981 3.23458 14.9122 3.08398 14.7985C2.93339 14.6849 2.81803 14.5309 2.75123 14.3544C2.68443 14.178 2.66892 13.9862 2.70648 13.8013L3.43448 10.2243C3.46952 10.0521 3.45858 9.87377 3.40275 9.70716C3.34692 9.54056 3.24819 9.39161 3.11648 9.27531L0.338482 6.82431C0.193686 6.69659 0.0889622 6.52967 0.0369568 6.34373C-0.0150486 6.15778 -0.0121117 5.96076 0.0454129 5.77645C0.102938 5.59214 0.21259 5.42842 0.361128 5.30507C0.509667 5.18172 0.69074 5.104 0.882482 5.08131L4.77448 4.62131C4.9391 4.60183 5.0963 4.54174 5.23193 4.44643C5.36756 4.35112 5.47737 4.22359 5.55148 4.07531L7.26648 0.641311Z" fill="#F5B423"/>
<path d="M28.2665 0.641311C28.3495 0.475167 28.4772 0.335433 28.6352 0.237771C28.7932 0.140109 28.9752 0.0883789 29.161 0.0883789C29.3467 0.0883789 29.5288 0.140109 29.6868 0.237771C29.8448 0.335433 29.9724 0.475167 30.0555 0.641311L31.7695 4.07431C31.8436 4.22259 31.9534 4.35012 32.089 4.44543C32.2247 4.54074 32.3819 4.60083 32.5465 4.62031L36.4385 5.08031C36.6302 5.103 36.8113 5.18072 36.9598 5.30407C37.1084 5.42742 37.218 5.59114 37.2756 5.77545C37.3331 5.95976 37.336 6.15678 37.284 6.34273C37.232 6.52867 37.1273 6.69559 36.9825 6.82331L34.2045 9.27431C34.0728 9.39061 33.974 9.53956 33.9182 9.70617C33.8624 9.87277 33.8514 10.0511 33.8865 10.2233L34.6145 13.8003C34.652 13.9852 34.6365 14.177 34.5697 14.3534C34.5029 14.5299 34.3876 14.6839 34.237 14.7975C34.0864 14.9112 33.9067 14.98 33.7187 14.9959C33.5307 15.0117 33.342 14.9741 33.1745 14.8873L29.6215 13.0503C29.4793 12.9767 29.3216 12.9382 29.1615 12.9382C29.0014 12.9382 28.8436 12.9767 28.7015 13.0503L25.1465 14.8883C24.979 14.9751 24.7903 15.0127 24.6023 14.9969C24.4143 14.981 24.2346 14.9122 24.084 14.7985C23.9334 14.6849 23.818 14.5309 23.7512 14.3544C23.6844 14.178 23.6689 13.9862 23.7065 13.8013L24.4345 10.2243C24.4695 10.0521 24.4586 9.87377 24.4028 9.70716C24.3469 9.54056 24.2482 9.39161 24.1165 9.27531L21.3385 6.82431C21.1937 6.69659 21.089 6.52967 21.037 6.34373C20.985 6.15778 20.9879 5.96076 21.0454 5.77645C21.1029 5.59214 21.2126 5.42842 21.3611 5.30507C21.5097 5.18172 21.6907 5.104 21.8825 5.08131L25.7745 4.62131C25.9391 4.60183 26.0963 4.54174 26.2319 4.44643C26.3676 4.35112 26.4774 4.22359 26.5515 4.07531L28.2665 0.641311Z" fill="#F5B423"/>
<path d="M49.7768 0.534409C49.8616 0.373159 49.9889 0.23815 50.1449 0.143965C50.3009 0.0497807 50.4796 0 50.6618 0C50.844 0 51.0227 0.0497807 51.1787 0.143965C51.3347 0.23815 51.462 0.373159 51.5468 0.534409L53.4148 4.08841C53.4909 4.23293 53.6012 4.35662 53.7361 4.44867C53.8711 4.54071 54.0265 4.5983 54.1888 4.61641L58.3428 5.08341C58.5373 5.10524 58.7211 5.18367 58.8715 5.30897C59.0218 5.43428 59.1321 5.60095 59.1886 5.78832C59.2452 5.9757 59.2455 6.17555 59.1895 6.3631C59.1335 6.55064 59.0238 6.71765 58.8738 6.84341L55.9738 9.27041C55.8345 9.38727 55.7297 9.53989 55.6707 9.71186C55.6117 9.88383 55.6006 10.0686 55.6388 10.2464L56.4068 13.8324C56.4462 14.016 56.433 14.207 56.3689 14.3836C56.3047 14.5601 56.1922 14.7149 56.0441 14.8305C55.896 14.946 55.7184 15.0175 55.5316 15.0367C55.3448 15.056 55.1563 15.0223 54.9878 14.9394L51.1008 13.0264C50.9634 12.9588 50.8124 12.9237 50.6593 12.9237C50.5062 12.9237 50.3552 12.9588 50.2178 13.0264L46.3328 14.9394C46.1643 15.0223 45.9758 15.056 45.789 15.0367C45.6022 15.0175 45.4246 14.946 45.2765 14.8305C45.1284 14.7149 45.0159 14.5601 44.9517 14.3836C44.8876 14.207 44.8744 14.016 44.9138 13.8324L45.6818 10.2504C45.72 10.0726 45.7089 9.88783 45.6499 9.71586C45.5909 9.54389 45.4861 9.39127 45.3468 9.27441L42.4468 6.84741C42.2968 6.72165 42.1871 6.55465 42.1311 6.3671C42.0751 6.17955 42.0754 5.9797 42.132 5.79232C42.1885 5.60495 42.2988 5.43828 42.4491 5.31297C42.5995 5.18767 42.7833 5.10924 42.9778 5.08741L47.1318 4.62041C47.2941 4.6023 47.4495 4.54471 47.5845 4.45267C47.7194 4.36062 47.8297 4.23693 47.9058 4.09241L49.7768 0.534409Z" fill="#F5B423"/>
<path d="M71.2665 0.641311C71.3495 0.475167 71.4772 0.335433 71.6352 0.237771C71.7932 0.140109 71.9752 0.0883789 72.161 0.0883789C72.3467 0.0883789 72.5288 0.140109 72.6868 0.237771C72.8448 0.335433 72.9724 0.475167 73.0555 0.641311L74.7695 4.07431C74.8436 4.22259 74.9534 4.35012 75.089 4.44543C75.2247 4.54074 75.3819 4.60083 75.5465 4.62031L79.4385 5.08031C79.6302 5.103 79.8113 5.18072 79.9598 5.30407C80.1084 5.42742 80.218 5.59114 80.2756 5.77545C80.3331 5.95976 80.336 6.15678 80.284 6.34273C80.232 6.52867 80.1273 6.69559 79.9825 6.82331L77.2045 9.27431C77.0728 9.39061 76.974 9.53956 76.9182 9.70617C76.8624 9.87277 76.8514 10.0511 76.8865 10.2233L77.6145 13.8003C77.652 13.9852 77.6365 14.177 77.5697 14.3534C77.5029 14.5299 77.3876 14.6839 77.237 14.7975C77.0864 14.9112 76.9067 14.98 76.7187 14.9959C76.5307 15.0117 76.342 14.9741 76.1745 14.8873L72.6215 13.0503C72.4793 12.9767 72.3216 12.9382 72.1615 12.9382C72.0014 12.9382 71.8436 12.9767 71.7015 13.0503L68.1465 14.8883C67.979 14.9751 67.7903 15.0127 67.6023 14.9969C67.4143 14.981 67.2346 14.9122 67.084 14.7985C66.9334 14.6849 66.818 14.5309 66.7512 14.3544C66.6844 14.178 66.6689 13.9862 66.7065 13.8013L67.4345 10.2243C67.4695 10.0521 67.4586 9.87377 67.4028 9.70716C67.3469 9.54056 67.2482 9.39161 67.1165 9.27531L64.3385 6.82431C64.1937 6.69659 64.089 6.52967 64.037 6.34373C63.985 6.15778 63.9879 5.96076 64.0454 5.77645C64.1029 5.59214 64.2126 5.42842 64.3611 5.30507C64.5097 5.18172 64.6907 5.104 64.8825 5.08131L68.7745 4.62131C68.9391 4.60183 69.0963 4.54174 69.2319 4.44643C69.3676 4.35112 69.4774 4.22359 69.5515 4.07531L71.2665 0.641311Z" fill="#F5B423"/>
<path d="M92.2665 0.641311C92.3495 0.475167 92.4772 0.335433 92.6352 0.237771C92.7932 0.140109 92.9752 0.0883789 93.161 0.0883789C93.3467 0.0883789 93.5288 0.140109 93.6868 0.237771C93.8448 0.335433 93.9724 0.475167 94.0555 0.641311L95.7695 4.07431C95.8436 4.22259 95.9534 4.35012 96.089 4.44543C96.2247 4.54074 96.3819 4.60083 96.5465 4.62031L100.438 5.08031C100.63 5.103 100.811 5.18072 100.96 5.30407C101.108 5.42742 101.218 5.59114 101.276 5.77545C101.333 5.95976 101.336 6.15678 101.284 6.34273C101.232 6.52867 101.127 6.69559 100.982 6.82331L98.2045 9.27431C98.0728 9.39061 97.974 9.53956 97.9182 9.70617C97.8624 9.87277 97.8514 10.0511 97.8865 10.2233L98.6145 13.8003C98.652 13.9852 98.6365 14.177 98.5697 14.3534C98.5029 14.5299 98.3876 14.6839 98.237 14.7975C98.0864 14.9112 97.9067 14.98 97.7187 14.9959C97.5307 15.0117 97.342 14.9741 97.1745 14.8873L93.6215 13.0503C93.4793 12.9767 93.3216 12.9382 93.1615 12.9382C93.0014 12.9382 92.8436 12.9767 92.7015 13.0503L89.1465 14.8883C88.979 14.9751 88.7903 15.0127 88.6023 14.9969C88.4143 14.981 88.2346 14.9122 88.084 14.7985C87.9334 14.6849 87.818 14.5309 87.7512 14.3544C87.6844 14.178 87.6689 13.9862 87.7065 13.8013L88.4345 10.2243C88.4695 10.0521 88.4586 9.87377 88.4028 9.70716C88.3469 9.54056 88.2482 9.39161 88.1165 9.27531L85.3385 6.82431C85.1937 6.69659 85.089 6.52967 85.037 6.34373C84.985 6.15778 84.9879 5.96076 85.0454 5.77645C85.1029 5.59214 85.2126 5.42842 85.3611 5.30507C85.5097 5.18172 85.6907 5.104 85.8825 5.08131L89.7745 4.62131C89.9391 4.60183 90.0963 4.54174 90.2319 4.44643C90.3676 4.35112 90.4774 4.22359 90.5515 4.07531L92.2665 0.641311Z" fill="#E9E9ED"/>
</svg>
