<svg width="102" height="16" viewBox="0 0 102 16" fill="none" xmlns="http://www.w3.org/2000/svg">
<path d="M8.16207 1.08886L6.44789 4.52144C6.14588 5.1262 5.5648 5.53465 4.89348 5.61406L1.00121 6.07437L3.77874 8.52518C4.31362 8.99715 4.55755 9.72457 4.41534 10.4236L3.68754 14.001L7.24226 12.1598C7.52529 12.0132 7.84336 11.9357 8.16208 11.9357C8.4808 11.9357 8.79887 12.0132 9.08192 12.1598L12.6366 14.001C12.6366 14.0009 12.6366 14.001 12.6366 14.001L11.9088 10.4236C11.7666 9.72457 12.0105 8.99715 12.5454 8.52518L15.3229 6.07437L11.4307 5.61406C10.7594 5.53466 10.1783 5.1262 9.87628 4.52145L8.16207 1.08886ZM8.16208 0.0888672C8.51731 0.0888672 8.87254 0.273275 9.05672 0.642091L10.7709 4.07467C10.9214 4.37606 11.2136 4.58141 11.5481 4.62098L15.4404 5.08129C16.2989 5.18282 16.6328 6.25223 15.9846 6.8242L13.207 9.27501C12.9388 9.5117 12.8174 9.87365 12.8887 10.2242L13.6165 13.8016C13.7841 14.6251 12.9229 15.2754 12.1767 14.8889L8.622 13.0478C8.33358 12.8984 7.99058 12.8984 7.70216 13.0478L4.14746 14.8889C3.4013 15.2754 2.54009 14.6251 2.70761 13.8016L3.43541 10.2242C3.50673 9.87365 3.38535 9.5117 3.11711 9.27501L0.339568 6.8242C-0.308641 6.25224 0.0252574 5.18282 0.883759 5.08129L4.77604 4.62098C5.11058 4.58141 5.40273 4.37606 5.55324 4.07467L7.26743 0.642091C7.45161 0.273275 7.80685 0.0888672 8.16208 0.0888672Z" fill="#F5B423"/>
<path d="M29.1621 1.08886L27.4479 4.52144C27.1459 5.1262 26.5648 5.53465 25.8935 5.61406L22.0012 6.07437L24.7787 8.52518C25.3136 8.99715 25.5575 9.72457 25.4153 10.4236L24.6875 14.001L28.2423 12.1598C28.5253 12.0132 28.8434 11.9357 29.1621 11.9357C29.4808 11.9357 29.7989 12.0132 30.0819 12.1598L33.6366 14.001C33.6366 14.0009 33.6366 14.001 33.6366 14.001L32.9088 10.4236C32.7666 9.72457 33.0105 8.99715 33.5454 8.52518L36.3229 6.07437L32.4307 5.61406C31.7594 5.53466 31.1783 5.1262 30.8763 4.52145L29.1621 1.08886ZM29.1621 0.0888672C29.5173 0.0888672 29.8725 0.273275 30.0567 0.642091L31.7709 4.07467C31.9214 4.37606 32.2136 4.58141 32.5481 4.62098L36.4404 5.08129C37.2989 5.18282 37.6328 6.25223 36.9846 6.8242L34.207 9.27501C33.9388 9.5117 33.8174 9.87365 33.8887 10.2242L34.6165 13.8016C34.7841 14.6251 33.9229 15.2754 33.1767 14.8889L29.622 13.0478C29.3336 12.8984 28.9906 12.8984 28.7022 13.0478L25.1475 14.8889C24.4013 15.2754 23.5401 14.6251 23.7076 13.8016L24.4354 10.2242C24.5067 9.87365 24.3853 9.5117 24.1171 9.27501L21.3396 6.8242C20.6914 6.25224 21.0253 5.18282 21.8838 5.08129L25.776 4.62098C26.1106 4.58141 26.4027 4.37606 26.5532 4.07467L28.2674 0.642091C28.4516 0.273275 28.8068 0.0888672 29.1621 0.0888672Z" fill="#F5B423"/>
<path d="M50.6622 1L48.7941 4.55386C48.4852 5.14153 47.9068 5.53664 47.2471 5.61077L43.0935 6.07742L45.989 8.50457C46.5584 8.98183 46.8154 9.72962 46.6599 10.4561L45.8918 14.0426L49.7793 12.1298C50.0524 11.9954 50.3578 11.9243 50.6622 11.9243C50.9667 11.9243 51.2721 11.9954 51.5452 12.1298L55.4327 14.0426C55.4326 14.0426 55.4327 14.0426 55.4327 14.0426L54.6646 10.4561C54.509 9.72962 54.7661 8.98183 55.3355 8.50459L58.231 6.07742L54.0774 5.61077C53.4177 5.53664 52.8394 5.14155 52.5304 4.55387L50.6622 1C50.6622 1 50.6622 1 50.6622 1ZM50.6622 0C51.0111 0 51.36 0.178232 51.5474 0.534698L53.4156 4.08857C53.5698 4.38206 53.8596 4.58 54.1891 4.61702L58.3426 5.08367C59.2165 5.18184 59.5473 6.2789 58.8734 6.84378L55.9779 9.27095C55.6939 9.50895 55.5649 9.88444 55.6424 10.2467L56.4105 13.8332C56.5854 14.6502 55.7408 15.3087 54.9912 14.9399L51.1037 13.027C50.8253 12.8901 50.4991 12.8901 50.2207 13.027L46.3333 14.9399C45.5837 15.3087 44.739 14.6502 44.914 13.8332L45.682 10.2467C45.7596 9.88444 45.6305 9.50895 45.3466 9.27095L42.4511 6.84378C41.7772 6.2789 42.108 5.18185 42.9818 5.08367L47.1354 4.61702C47.4649 4.58 47.7546 4.38207 47.9089 4.08857L49.7771 0.534698C49.9645 0.178232 50.3134 0 50.6622 0Z" fill="#F5B423"/>
<path d="M72.1621 1.08886L70.4479 4.52144C70.1459 5.1262 69.5648 5.53465 68.8935 5.61406L65.0012 6.07437L67.7787 8.52518C68.3136 8.99715 68.5575 9.72457 68.4153 10.4236L67.6875 14.001L71.2423 12.1598C71.5253 12.0132 71.8434 11.9357 72.1621 11.9357C72.4808 11.9357 72.7989 12.0132 73.0819 12.1598L76.6366 14.001C76.6366 14.0009 76.6366 14.001 76.6366 14.001L75.9088 10.4236C75.7666 9.72457 76.0105 8.99715 76.5454 8.52518L79.3229 6.07437L75.4307 5.61406C74.7594 5.53466 74.1783 5.1262 73.8763 4.52145L72.1621 1.08886ZM72.1621 0.0888672C72.5173 0.0888672 72.8725 0.273275 73.0567 0.642091L74.7709 4.07467C74.9214 4.37606 75.2136 4.58141 75.5481 4.62098L79.4404 5.08129C80.2989 5.18282 80.6328 6.25223 79.9846 6.8242L77.207 9.27501C76.9388 9.5117 76.8174 9.87365 76.8887 10.2242L77.6165 13.8016C77.7841 14.6251 76.9229 15.2754 76.1767 14.8889L72.622 13.0478C72.3336 12.8984 71.9906 12.8984 71.7022 13.0478L68.1475 14.8889C67.4013 15.2754 66.5401 14.6251 66.7076 13.8016L67.4354 10.2242C67.5067 9.87365 67.3853 9.5117 67.1171 9.27501L64.3396 6.8242C63.6914 6.25224 64.0253 5.18282 64.8838 5.08129L68.776 4.62098C69.1106 4.58141 69.4027 4.37606 69.5532 4.07467L71.2674 0.642091C71.4516 0.273275 71.8068 0.0888672 72.1621 0.0888672Z" fill="#F5B423"/>
<path d="M93.1621 1.08886L91.4479 4.52144C91.1459 5.1262 90.5648 5.53465 89.8935 5.61406L86.0012 6.07437L88.7787 8.52518C89.3136 8.99715 89.5575 9.72457 89.4153 10.4236L88.6875 14.001L92.2423 12.1598C92.5253 12.0132 92.8434 11.9357 93.1621 11.9357C93.4808 11.9357 93.7989 12.0132 94.0819 12.1598L97.6366 14.001C97.6366 14.0009 97.6366 14.001 97.6366 14.001L96.9088 10.4236C96.7666 9.72457 97.0105 8.99715 97.5454 8.52518L100.323 6.07437L96.4307 5.61406C95.7594 5.53466 95.1783 5.1262 94.8763 4.52145L93.1621 1.08886ZM93.1621 0.0888672C93.5173 0.0888672 93.8725 0.273275 94.0567 0.642091L95.7709 4.07467C95.9214 4.37606 96.2136 4.58141 96.5481 4.62098L100.44 5.08129C101.299 5.18282 101.633 6.25223 100.985 6.8242L98.207 9.27501C97.9388 9.5117 97.8174 9.87365 97.8887 10.2242L98.6165 13.8016C98.7841 14.6251 97.9229 15.2754 97.1767 14.8889L93.622 13.0478C93.3336 12.8984 92.9906 12.8984 92.7022 13.0478L89.1475 14.8889C88.4013 15.2754 87.5401 14.6251 87.7076 13.8016L88.4354 10.2242C88.5067 9.87365 88.3853 9.5117 88.1171 9.27501L85.3396 6.8242C84.6914 6.25224 85.0253 5.18282 85.8838 5.08129L89.776 4.62098C90.1106 4.58141 90.4027 4.37606 90.5532 4.07467L92.2674 0.642091C92.4516 0.273275 92.8068 0.0888672 93.1621 0.0888672Z" fill="#F5B423"/>
</svg>
